<svg xmlns="http://www.w3.org/2000/svg" viewBox="0 0 14.46 14.77"><path d="M6.68 14.71c4.72-.62 8.22-5 7.73-9.32A6.14 6.14 0 0 0 10.58.31 7.65 7.65 0 0 0 7.52.05a9.35 9.35 0 0 0-5.24 2.44A7.06 7.06 0 0 0 .05 6.64a5 5 0 0 0 1.33 4.23A4.06 4.06 0 0 0 4.86 12a5.92 5.92 0 0 0 3.7-2C10 8.25 10 6 8.53 4.82a2.39 2.39 0 0 0-1.81-.48 3.24 3.24 0 0 0-1.93 1s0 .08-.09.12a2.48 2.48 0 0 1 3.23-.31A2.61 2.61 0 0 1 8 8.87a3.78 3.78 0 0 1-2.33 1.24 2.84 2.84 0 0 1-2.36-.72 3.06 3.06 0 0 1-.94-2.58 4 4 0 0 1 1.22-2.56 5.18 5.18 0 0 1 3-1.48 4.15 4.15 0 0 1 3.05.81A4.52 4.52 0 0 1 11.39 7a6 6 0 0 1-1.45 4.11 7.84 7.84 0 0 1-5 2.8 6 6 0 0 1-3.53-.58 6.81 6.81 0 0 0 5.27 1.38z" fill="#909090" data-name="Слой 2"/></svg>