<svg xmlns="http://www.w3.org/2000/svg" viewBox="0 0 218.31 149.91"><defs><style>.cls-1{fill:#c3a47d;}.cls-2{fill:#f4f4f4;}</style></defs><title>Ресурс 1</title><g id="Слой_2" data-name="Слой 2"><g id="design"><path class="cls-1" d="M63.2,149a3.84,3.84,0,0,1-2.61.92,4.25,4.25,0,0,1-.07-8.5,3.83,3.83,0,0,1,2.51.8l-.46.76a3.26,3.26,0,0,0-2-.61,3,3,0,0,0-3.06,3.3,3.09,3.09,0,0,0,3.22,3.3,3.37,3.37,0,0,0,2.11-.73Z"/><path class="cls-1" d="M72.69,146.05H68.15v3.74h-1v-8.26h1v3.58h4.54v-3.58h1v8.26h-1Z"/><path class="cls-1" d="M82.09,141.41a4.25,4.25,0,1,1-4.21,4.25A4.09,4.09,0,0,1,82.09,141.41Zm0,7.55a3.11,3.11,0,0,0,3.15-3.3,3.15,3.15,0,1,0-3.15,3.3Z"/><path class="cls-1" d="M96.63,149a3.84,3.84,0,0,1-2.61.92,4.25,4.25,0,0,1-.07-8.5,3.83,3.83,0,0,1,2.51.8L96,143a3.26,3.26,0,0,0-2-.61,3.05,3.05,0,0,0-3.07,3.3,3.1,3.1,0,0,0,3.22,3.3,3.35,3.35,0,0,0,2.11-.73Z"/><path class="cls-1" d="M103.82,141.41a4.25,4.25,0,1,1-4.21,4.25A4.09,4.09,0,0,1,103.82,141.41Zm0,7.55a3.3,3.3,0,1,0-3.15-3.3A3.17,3.17,0,0,0,103.82,149Z"/><path class="cls-1" d="M112.21,141.53h1v7.31h4.08v.95h-5.08Z"/><path class="cls-1" d="M123.54,141.48h.86l3.56,8.31h-1.08l-1.06-2.51h-3.76l-1,2.51h-1Zm-1.08,4.86h3l-1.49-3.53Z"/><path class="cls-1" d="M129.79,141.53h6.78v.95h-2.89v7.31h-1v-7.31h-2.89Z"/><path class="cls-1" d="M140.52,141.53h1v8.26h-1Z"/><path class="cls-1" d="M146.59,141.53h4.66v.95H147.6v2.66h3.3v.94h-3.3v2.76h3.77v.95h-4.78Z"/><path class="cls-1" d="M155.73,149.79v-8.26l2.22,0c2.25,0,2.93,1.12,2.93,2.45a2.37,2.37,0,0,1-1.79,2.34l2.75,3.49h-1.22l-2.54-3.31h-1.35v3.31Zm1-7.31v3.06H158a1.71,1.71,0,0,0,1.87-1.57c0-.85-.47-1.52-1.93-1.52Z"/><path class="cls-1" d="M128.89,19.16A4.92,4.92,0,0,0,130.76,14a5,5,0,0,0-5-3.76,7,7,0,0,0-1.55.18c-2,.46-6.46,4.39-10,7.8l-1.9-1.87-.11-.1c5-5,7.48-7.93,7.85-9.53A5.47,5.47,0,0,0,119.05,2a5,5,0,0,0-3.93-1.9,4.86,4.86,0,0,0-3.94,2,4.91,4.91,0,0,0-7.88-.27,5.6,5.6,0,0,0-.93,4.87c.32,1.39,2.2,3.81,6,7.69,1.54,1.46,2.91,2.85,3.76,3.72l1,1h0l1,.95h0c3.58,3.4,8,7.34,10,7.79a7,7,0,0,0,1.55.18h0a5,5,0,0,0,5-3.76A4.91,4.91,0,0,0,128.89,19.16ZM111.18,15.3c-4.68-4.61-7.19-7.6-7.49-8.89a4.26,4.26,0,0,1,.67-3.71,3.57,3.57,0,0,1,2.78-1.34,3.8,3.8,0,0,1,3.35,2.2l.19.36h1l.19-.36A3.6,3.6,0,0,1,118,2.84a4.13,4.13,0,0,1,.68,3.57C118.37,7.7,115.85,10.69,111.18,15.3ZM129.44,24a3.64,3.64,0,0,1-3.7,2.74h0a5.53,5.53,0,0,1-1.25-.15c-1.29-.3-4.77-3.05-9.36-7.41,4.59-4.36,8.07-7.12,9.36-7.42a6.14,6.14,0,0,1,1.25-.14,3.63,3.63,0,0,1,3.7,2.74,3.67,3.67,0,0,1-2.09,4.2l-.36.23v.81l.36.19A3.68,3.68,0,0,1,129.44,24Z"/><path class="cls-1" d="M120,31.6c-.37-1.61-2.8-4.56-7.85-9.54l.11-.09.79-.78c.09-.1.23-.23.37-.37l-1-.95-.36.36-.78.76-.12.12h0l-.13-.12c-.32-.32-.59-.57-.77-.76s-.61-.61-1.1-1.07h0c.49-.47.87-.85,1.1-1.08.06,0,.12-.12.19-.19l-1-1-.19.19c-.23.24-.62.62-1.11,1.1-3.59-3.41-8.06-7.34-10-7.8a7,7,0,0,0-1.55-.18,5,5,0,0,0-5,3.76,4.92,4.92,0,0,0,1.87,5.16,4.91,4.91,0,0,0-1.87,5.15,5,5,0,0,0,5,3.76,7,7,0,0,0,1.55-.18c1.86-.42,5.89-3.9,9.33-7.13-.29-.3-.62-.61-1-.94-4.24,4-7.44,6.47-8.67,6.75a5.38,5.38,0,0,1-1.24.15A3.62,3.62,0,0,1,95,19.77l.36-.22v-.82L95,18.54a3.62,3.62,0,0,1,1.61-6.94,6,6,0,0,1,1.24.14c1.11.26,3.8,2.3,7.42,5.6,1.8,1.52,3.3,3.05,4.13,3.9.15.16,2.71,2.63,3.88,3.9,3.32,3.41,5.13,5.68,5.38,6.76a4.32,4.32,0,0,1-.67,3.72A3.62,3.62,0,0,1,115.22,37a3.8,3.8,0,0,1-3.35-2.21l-.19-.35h-1l-.19.35A3.81,3.81,0,0,1,107.14,37a3.57,3.57,0,0,1-2.78-1.34,4.29,4.29,0,0,1-.67-3.72c.28-1.23,2.56-4,6.79-8.19l-.9-.87-.08-.07c-4.56,4.55-6.78,7.3-7.13,8.83a5.58,5.58,0,0,0,.93,4.86,4.9,4.9,0,0,0,7.88-.26,4.94,4.94,0,0,0,4,2.12h0a5,5,0,0,0,3.84-1.86A5.64,5.64,0,0,0,120,31.6Z"/><path class="cls-2" d="M129.92,88.21c1.33,0,2,.88,2,2.38,0,5-8,17.73-13.85,17.73-1.14,0-1.85-.88-1.85-2.29,0-6.09,9.34-17.82,13.75-17.82Zm-45.5,0c1.32,0,1.93.88,1.93,2.38,0,5-8,17.73-13.85,17.73-1.14,0-1.85-.88-1.85-2.29,0-6.09,9.35-17.82,13.77-17.82Zm-25.5.18a.88.88,0,0,1,1,1c0,4.32-10,11.38-10,17.11,0,2.11,1.32,3.79,4.23,3.79,4.06,0,9.88-5.29,12.79-8.73a7.63,7.63,0,0,0-.26,1.94c0,3.79,1.85,6.7,5.46,6.7,3.27,0,7.24-2.56,10.5-6a6.12,6.12,0,0,0,2.38.44,10.45,10.45,0,0,0,7.32-3.36,6,6,0,0,0-.17,1.68c0,5.12,3.26,7.41,6.88,7.41,5.29,0,9.88-4.32,13.31-8.47a5.07,5.07,0,0,0-.17,1.59c0,3.79,1.85,6.7,5.47,6.7,3.35,0,7.32-2.56,10.58-6.08a5.16,5.16,0,0,0,2.47.53,8.52,8.52,0,0,0,4.24-1.24l-16,23.67h5.3s4.59-6.73,13-19.17a3.24,3.24,0,0,0,3.35,2.38c9.09,0,20.55-10.67,20.55-19.05,0-2.56-1.41-4.68-4.23-4.68s-5.2,1.33-7.67,3.53L155,81.39h-5.2L138.48,98c-2.56,3.09-5.38,5-8,5a5.8,5.8,0,0,1-1.24-.18c3-3.7,5.21-8,5.21-11.64,0-2.82-1.86-4.68-4.94-4.68-6,0-11.65,4.85-14.74,9.8-5,6.7-10.67,12.08-15.34,12.08-1.15,0-3.27-.53-3.27-2.82,0-5.74,8.91-17.38,13.32-17.38a.86.86,0,0,1,1,.88c0,1.5-2.91,1.59-2.91,4a1.55,1.55,0,0,0,1.68,1.59c2.47-.09,3.61-3,3.61-4.59,0-2-1-3.53-3.79-3.53-5.91,0-11.64,4.94-14.64,9.88-3,4-6.62,6.53-9.61,6.53a4.22,4.22,0,0,1-1.06-.09c3-3.62,5.2-8,5.2-11.64,0-2.82-1.85-4.68-4.94-4.68-6.08,0-11.73,4.94-14.82,10-1.05,1.59-10.41,11.64-14.29,11.64a1,1,0,0,1-1.15-1.06C53.71,103.82,64,94.91,64,90.33c0-2.39-1.68-3.88-4.23-3.88-3.18,0-6,1.76-8.92,4.76,8.3-12.62,15.34-23.27,15.34-23.27H60.93L41.37,97.3c-4.76,5.82-15.26,12.61-24.08,12.61-6.62,0-12.53-3.88-12.53-13.76,0-14.29,17-38.55,33.52-38.55,6.27,0,8.38,3.71,8.38,8.12,0,9-8.91,21.25-18.34,21.25-3,0-4.59-1.85-4.59-4.76,0-5.29,4.76-9.79,7-11.2,1.59-1.06.71-2.65-1-1.59C25.58,72,22,77.8,22,82.21c0,4.59,3,6.44,6.71,6.44,9.7,0,20.46-10.67,20.46-22.23,0-5.73-3.17-10.5-11.11-10.5-16.5,0-38,18-38,38.2,0,7.85,4.59,17.55,17,17.55,8.74,0,16.76-5,20.64-8.82L33,110h5.29s2.65-4.06,6.44-9.71c4.94-7.23,11.65-11.9,14.2-11.9Zm141.13,16.49c2.21,0,3.35,5.38,7.67,5.38,4.95,0,8.12-6.35,8.12-6.35l-1.15-.71a6,6,0,0,1-4.14,2.39c-2.38,0-3.71-3.18-7.33-3.18a8.11,8.11,0,0,0-2.29.35c4.15-3.88,8-8.2,12.44-11.55,2.65-.88,4.94-2.12,4.94-3.35a1.19,1.19,0,0,0-1.23-1.15c-1.68,0-4,2-5.3,3.26a10.3,10.3,0,0,1-3.26.53c-3.09,0-4.5-1.85-5.65-3.61a3.06,3.06,0,0,0-2.82-1.68,2.19,2.19,0,0,0-2.21,2.2,3.13,3.13,0,0,0,.8,2c-1.94,3.62-14,18.88-18.7,18.88a1.13,1.13,0,0,1-1.14-1.24c0-3.08,7.76-13.84,12.52-20.19H186.2l-1.76,2.29a3.38,3.38,0,0,0-3.62-2.73c-9.08,0-20.11,10.49-20.11,18.17,0,2.55,1.32,5.55,4.32,5.55,3.62,0,7.24-2.56,10.94-6.88a9.9,9.9,0,0,0-.53,3c0,1.5.62,4,3.53,4,6.35,0,15.08-11.29,21.26-19.49a13.63,13.63,0,0,0,6.7,1.58,12.93,12.93,0,0,0,2.47-.17c-4.06,3.88-9.26,9.08-12.88,11.82-2.12.88-7.32,3.17-7.32,5.47a.74.74,0,0,0,.8.79c1.94,0,6.26-3.44,7.93-4.85a6.35,6.35,0,0,1,2.12-.53ZM155.6,88.56c.88,0,1.32.62,1.32,1.68,0,5.91-10.76,18.17-16.14,18.17a1.79,1.79,0,0,1-1.86-1.94,4.48,4.48,0,0,1,.71-2.29l3.7-5.56c2.83-3.71,8.38-10.06,12.27-10.06Zm10.76,19.58c-1.15,0-1.68-.79-1.68-1.94,0-5.82,11.55-18,16.41-18a1.57,1.57,0,0,1,1.5,1.76,7.67,7.67,0,0,1-1.24,3.53,35.77,35.77,0,0,0-2.47,3.8C176.32,100.82,170.24,108.14,166.36,108.14Z"/></g></g></svg>