<svg xmlns="http://www.w3.org/2000/svg" viewBox="0 0 30 29.13"><path d="M28.46 14.56a3.72 3.72 0 0 0 1.43-3.91 3.83 3.83 0 0 0-3.82-2.87 5.42 5.42 0 0 0-1.18.14c-1.51.35-4.91 3.34-7.63 5.93l-1.45-1.42-.07-.08c3.83-3.78 5.68-6 6-7.24a4.17 4.17 0 0 0-.74-3.6 3.87 3.87 0 0 0-3-1.44 3.68 3.68 0 0 0-3 1.54 3.73 3.73 0 0 0-6-.2 4.28 4.28 0 0 0-.71 3.7C8.55 6.17 10 8 12.87 11c1.17 1.12 2.21 2.17 2.86 2.83l.79.78.74.72c2.72 2.59 6.12 5.58 7.63 5.93a5.4 5.4 0 0 0 1.18.13 3.83 3.83 0 0 0 3.82-2.86 3.73 3.73 0 0 0-1.43-3.97zM15 11.63c-3.55-3.5-5.47-5.77-5.69-6.76a3.26 3.26 0 0 1 .5-2.82 2.73 2.73 0 0 1 2.12-1 2.9 2.9 0 0 1 2.55 1.68l.14.27h.76l.14-.27A2.82 2.82 0 0 1 18 1.1a2.78 2.78 0 0 1 2.18 1.06 3.11 3.11 0 0 1 .51 2.71c-.22.99-2.14 3.26-5.69 6.76zm13.89 6.6a2.79 2.79 0 0 1-2.82 2.08 4 4 0 0 1-.95-.11c-1-.23-3.63-2.32-7.11-5.64 3.48-3.31 6.13-5.41 7.11-5.63a4 4 0 0 1 .95-.11 2.74 2.74 0 0 1 1.22 5.27l-.27.18v.61l.27.15a2.81 2.81 0 0 1 1.6 3.2zM21.7 24c-.28-1.22-2.13-3.46-6-7.25l.07-.07.6-.59.29-.28-.66-.7-.28.27c-.13.14-.34.34-.59.58l-.09.09-.13-.05c-.25-.24-.46-.44-.59-.58l-.84-.82.84-.81.14-.15-.73-.73-.14.15c-.18.18-.47.47-.85.83C10 11.26 6.62 8.27 5.11 7.92a5.42 5.42 0 0 0-1.18-.14 3.83 3.83 0 0 0-3.82 2.87 3.72 3.72 0 0 0 1.43 3.91 3.74 3.74 0 0 0-1.43 3.92 3.83 3.83 0 0 0 3.82 2.86 5.4 5.4 0 0 0 1.18-.13c1.41-.33 4.48-3 7.1-5.43l-.75-.72c-3.22 3-5.65 4.93-6.58 5.14a4 4 0 0 1-.95.11A2.75 2.75 0 0 1 2.71 15l.29-.14v-.62l-.27-.15a2.74 2.74 0 0 1 1.2-5.27 4 4 0 0 1 .95.11c.84.19 2.89 1.75 5.63 4.25a35.95 35.95 0 0 1 3.14 3c.12.13 2.06 2 3 3 2.52 2.59 3.89 4.32 4.08 5.14a3.28 3.28 0 0 1-.5 2.83 2.76 2.76 0 0 1-2.12 1 2.9 2.9 0 0 1-2.55-1.68l-.14-.27h-.76l-.14.27a2.9 2.9 0 0 1-2.55 1.68 2.73 2.73 0 0 1-2.12-1 3.28 3.28 0 0 1-.5-2.83c.21-.93 1.95-3 5.16-6.22l-.69-.67v-.05C10.26 20.77 8.57 22.86 8.3 24a4.29 4.29 0 0 0 .7 3.72 3.73 3.73 0 0 0 6-.2 3.77 3.77 0 0 0 3.07 1.61A3.76 3.76 0 0 0 21 27.72a4.29 4.29 0 0 0 .7-3.72z" fill="#c3a47d" data-name="Слой 2"/></svg>